# 3ds Max Wavefront OBJ Exporter v0.97b - (c)2007 guruware
# File Created: 02.05.2020 17:26:26

#
# object motor
#

v  -0.2090 1.8801 0.0243
v  0.2090 1.8801 0.0243
v  0.2090 1.8801 0.4286
v  -0.2090 1.8801 0.4286
v  0.2008 3.0221 0.1237
v  -0.2008 3.0221 0.1237
v  -0.2008 3.0221 0.5280
v  0.2008 3.0221 0.5280
v  0.5500 2.3130 0.1237
v  0.5000 2.8731 0.1237
v  0.5000 2.8731 0.5280
v  0.5500 2.3130 0.5280
v  -0.5500 2.3130 0.5280
v  -0.5000 2.8731 0.5280
v  -0.5000 2.8731 0.1237
v  -0.5500 2.3130 0.1237
v  -0.1019 2.2712 -0.4934
v  0.1019 2.2712 -0.4934
v  0.1023 2.2708 0.7568
v  -0.1023 2.2708 0.7568
v  0.1019 2.7729 -0.4934
v  -0.1019 2.7729 -0.4934
v  -0.1023 2.7733 0.7568
v  0.1023 2.7733 0.7568
v  0.2508 2.4202 -0.4934
v  0.2508 2.6239 -0.4934
v  0.2512 2.6243 0.7568
v  0.2512 2.4198 0.7568
v  -0.2512 2.4198 0.7568
v  -0.2512 2.6243 0.7568
v  -0.2508 2.6239 -0.4934
v  -0.2508 2.4202 -0.4934
v  0.1019 2.2712 -0.8146
v  0.2508 2.4202 -0.8146
v  -0.1019 2.2712 -0.8146
v  -0.2508 2.4202 -0.8146
v  -0.2508 2.6239 -0.8146
v  -0.1019 2.7729 -0.8146
v  0.1019 2.7729 -0.8146
v  0.2508 2.6239 -0.8146
v  0.0485 2.4025 -1.1284
v  0.1195 2.4735 -1.1284
v  -0.0485 2.4025 -1.1284
v  -0.1195 2.4735 -1.1284
v  -0.1195 2.5706 -1.1284
v  -0.0485 2.6416 -1.1284
v  0.0485 2.6416 -1.1284
v  0.1195 2.5706 -1.1284
v  -0.1023 2.2708 0.8663
v  -0.2512 2.4198 0.8663
v  0.1023 2.2708 0.8663
v  0.2512 2.4198 0.8663
v  0.2512 2.6243 0.8663
v  0.1023 2.7733 0.8663
v  -0.1023 2.7733 0.8663
v  -0.2512 2.6243 0.8663
v  0.0000 2.5221 0.8663
v  0.0000 2.5221 -1.1284
# 58 vertices

vn 0.0000 -0.9538 -0.3004
vn 0.0000 -1.0000 -0.0000
vn -0.0000 0.9834 -0.1813
vn 0.0000 1.0000 -0.0000
vn 0.9754 0.0871 -0.2026
vn 0.9790 0.0802 -0.1876
vn 0.9960 0.0889 -0.0000
vn -0.9960 0.0889 -0.0000
vn -0.9795 0.0874 -0.1814
vn -0.9775 0.0797 -0.1951
vn 0.0000 -0.7979 -0.6028
vn 0.2620 -0.5777 0.7731
vn -0.2345 -0.5737 0.7847
vn -0.1827 -0.6026 0.7769
vn 0.1843 -0.5962 0.7814
vn -0.0000 0.9273 -0.3743
vn 0.0000 0.9273 -0.3743
vn -0.2511 0.5994 0.7601
vn 0.1792 0.5856 0.7906
vn 0.1584 0.6336 0.7573
vn -0.1770 0.5930 0.7855
vn 0.9175 0.0352 -0.3962
vn 0.9273 0.0000 -0.3744
vn 0.5407 0.1848 0.8207
vn 0.5418 -0.2596 0.7994
vn 0.5348 -0.2607 0.8038
vn 0.4833 0.3294 0.8111
vn -0.5573 -0.2146 0.8021
vn -0.5747 0.2165 0.7892
vn -0.4401 0.3176 0.8399
vn -0.5421 -0.2482 0.8028
vn -0.9058 0.0332 -0.4223
vn -0.8999 0.0000 -0.4362
vn 0.6833 -0.5690 -0.4576
vn 0.6410 -0.6410 -0.4220
vn 0.7807 -0.5884 -0.2104
vn 0.7872 -0.5614 -0.2552
vn -0.5646 0.6758 -0.4739
vn -0.6141 0.6141 -0.4958
vn -0.4607 0.8638 -0.2040
vn -0.4367 0.8769 -0.2007
vn -0.7856 -0.6187 -0.0000
vn -0.7919 -0.5793 -0.1932
vn -0.7767 -0.5824 -0.2400
vn -0.6621 -0.5447 -0.5148
vn -0.5846 -0.5846 -0.5626
vn 0.7856 -0.6187 -0.0000
vn 0.4458 0.8951 -0.0000
vn 0.4336 0.8706 -0.2325
vn 0.4582 0.8574 -0.2344
vn 0.5854 0.7021 -0.4055
vn 0.6568 0.6568 -0.3705
vn -0.4458 0.8951 -0.0000
vn 0.7071 -0.7071 -0.0000
vn -0.7071 -0.7071 -0.0000
vn -1.0000 0.0000 -0.0000
vn -0.7071 0.7071 -0.0000
vn 0.7071 0.7071 -0.0000
vn 1.0000 0.0000 -0.0000
vn 0.6529 -0.6529 -0.3841
vn 0.0000 -0.9225 -0.3860
vn -0.6529 -0.6529 -0.3841
vn -0.9225 0.0000 -0.3860
vn -0.6529 0.6529 -0.3841
vn 0.0000 0.9225 -0.3860
vn 0.6529 0.6529 -0.3841
vn 0.9225 0.0000 -0.3860
vn 0.0000 0.0000 1.0000
vn 0.0000 0.0000 -1.0000
# 69 vertex normals

vt 0.8510 0.7928 0.0000
vt 0.1490 0.7928 0.0000
vt 0.1490 0.2072 0.0000
vt 0.8510 0.2072 0.0000
vt 0.7928 0.1490 0.0000
vt 0.7928 0.8510 0.0000
vt 0.2072 0.8510 0.0000
vt 0.2072 0.1490 0.0000
vt 0.7030 1.0000 0.0000
vt 0.2970 1.0000 0.0000
vt 0.2965 0.0000 0.0000
vt 0.7035 0.0000 0.0000
vt 1.0000 0.2970 0.0000
vt 1.0000 0.7030 0.0000
vt 0.0000 0.7035 0.0000
vt 0.0000 0.2965 0.0000
vt 1.0000 0.2965 0.0000
vt 1.0000 0.7035 0.0000
vt 0.0000 0.7030 0.0000
vt 0.0000 0.2970 0.0000
vt 1.0872 0.2398 0.0000
vt 0.8800 0.0923 0.0000
vt 1.0305 0.2436 0.0000
vt 0.8233 0.0956 0.0000
vt -0.0872 0.7602 0.0000
vt 0.1200 0.9077 0.0000
vt -0.0305 0.7564 0.0000
vt 0.1767 0.9044 0.0000
vt 0.7928 -0.1562 0.0000
vt 0.2072 -0.1562 0.0000
vt 0.1767 0.0956 0.0000
vt -0.0305 0.2436 0.0000
vt 0.1200 0.0923 0.0000
vt -0.0872 0.2398 0.0000
vt 0.2072 1.1562 0.0000
vt 0.7928 1.1562 0.0000
vt 0.8233 0.9044 0.0000
vt 1.0305 0.7564 0.0000
vt 0.8800 0.9077 0.0000
vt 1.0872 0.7602 0.0000
vt 0.2970 0.0000 0.0000
vt 0.7030 0.0000 0.0000
vt 0.7035 1.0000 0.0000
vt 0.2965 1.0000 0.0000
vt 0.5000 0.5000 0.0000
# 45 texture coords

o motor
g motor
f 1/1/1 2/2/1 3/3/2 
f 3/3/2 4/4/2 1/1/1 
f 5/1/3 6/2/3 7/3/4 
f 7/3/4 8/4/4 5/1/3 
f 9/5/5 10/6/6 11/7/7 
f 11/7/7 12/8/7 9/5/5 
f 13/5/8 14/6/8 15/7/9 
f 15/7/9 16/8/10 13/5/8 
f 17/9/11 18/10/11 2/2/1 
f 2/2/1 1/1/1 17/9/11 
f 19/11/12 20/12/13 4/4/14 
f 4/4/14 3/3/15 19/11/12 
f 21/9/16 22/10/17 6/2/3 
f 6/2/3 5/1/3 21/9/16 
f 23/11/18 24/12/19 8/4/20 
f 8/4/20 7/3/21 23/11/18 
f 25/13/22 26/14/23 10/6/6 
f 10/6/6 9/5/5 25/13/22 
f 27/15/24 28/16/25 12/8/26 
f 12/8/26 11/7/27 27/15/24 
f 29/17/28 30/18/29 14/6/30 
f 14/6/30 13/5/31 29/17/28 
f 31/19/32 32/20/33 16/8/10 
f 16/8/10 15/7/9 31/19/32 
f 20/21/13 29/17/28 13/5/31 
f 13/5/31 4/22/14 20/21/13 
f 18/23/34 25/13/35 9/5/36 
f 9/5/36 2/24/37 18/23/34 
f 24/25/19 27/15/24 11/7/27 
f 11/7/27 8/26/20 24/25/19 
f 22/27/38 31/19/39 15/7/40 
f 15/7/40 6/28/41 22/27/38 
f 4/29/42 13/5/42 16/8/43 
f 16/8/43 1/30/44 4/29/42 
f 1/31/44 16/8/43 32/20/45 
f 32/20/45 17/32/46 1/31/44 
f 2/29/37 9/5/36 12/8/47 
f 12/8/47 3/30/47 2/29/37 
f 3/33/15 12/8/26 28/16/25 
f 28/16/25 19/34/12 3/33/15 
f 8/35/48 11/7/48 10/6/49 
f 10/6/49 5/36/50 8/35/48 
f 5/37/50 10/6/49 26/14/51 
f 26/14/51 21/38/52 5/37/50 
f 6/35/41 15/7/40 14/6/53 
f 14/6/53 7/36/53 6/35/41 
f 7/39/21 14/6/30 30/18/29 
f 30/18/29 23/40/18 7/39/21 
f 25/20/54 18/41/54 33/41/54 
f 33/41/54 34/20/54 25/20/54 
f 18/41/2 17/42/2 35/42/2 
f 35/42/2 33/41/2 18/41/2 
f 17/42/55 32/13/55 36/13/55 
f 36/13/55 35/42/55 17/42/55 
f 32/13/56 31/14/56 37/14/56 
f 37/14/56 36/13/56 32/13/56 
f 31/14/57 22/9/57 38/9/57 
f 38/9/57 37/14/57 31/14/57 
f 22/9/4 21/10/4 39/10/4 
f 39/10/4 38/9/4 22/9/4 
f 21/10/58 26/19/58 40/19/58 
f 40/19/58 39/10/58 21/10/58 
f 26/19/59 25/20/59 34/20/59 
f 34/20/59 40/19/59 26/19/59 
f 34/20/60 33/41/60 41/41/60 
f 41/41/60 42/20/60 34/20/60 
f 33/41/61 35/42/61 43/42/61 
f 43/42/61 41/41/61 33/41/61 
f 35/42/62 36/13/62 44/13/62 
f 44/13/62 43/42/62 35/42/62 
f 36/13/63 37/14/63 45/14/63 
f 45/14/63 44/13/63 36/13/63 
f 37/14/64 38/9/64 46/9/64 
f 46/9/64 45/14/64 37/14/64 
f 38/9/65 39/10/65 47/10/65 
f 47/10/65 46/9/65 38/9/65 
f 39/10/66 40/19/66 48/19/66 
f 48/19/66 47/10/66 39/10/66 
f 40/19/67 34/20/67 42/20/67 
f 42/20/67 48/19/67 40/19/67 
f 29/16/55 20/11/55 49/11/55 
f 49/11/55 50/16/55 29/16/55 
f 20/11/2 19/12/2 51/12/2 
f 51/12/2 49/11/2 20/11/2 
f 19/12/54 28/17/54 52/17/54 
f 52/17/54 51/12/54 19/12/54 
f 28/17/59 27/18/59 53/18/59 
f 53/18/59 52/17/59 28/17/59 
f 27/18/58 24/43/58 54/43/58 
f 54/43/58 53/18/58 27/18/58 
f 24/43/4 23/44/4 55/44/4 
f 55/44/4 54/43/4 24/43/4 
f 23/44/57 30/15/57 56/15/57 
f 56/15/57 55/44/57 23/44/57 
f 30/15/56 29/16/56 50/16/56 
f 50/16/56 56/15/56 30/15/56 
f 50/16/68 49/11/68 57/45/68 
f 49/11/68 51/12/68 57/45/68 
f 51/12/68 52/17/68 57/45/68 
f 52/17/68 53/18/68 57/45/68 
f 53/18/68 54/43/68 57/45/68 
f 54/43/68 55/44/68 57/45/68 
f 55/44/68 56/15/68 57/45/68 
f 56/15/68 50/16/68 57/45/68 
f 42/20/69 41/41/69 58/45/69 
f 41/41/69 43/42/69 58/45/69 
f 43/42/69 44/13/69 58/45/69 
f 44/13/69 45/14/69 58/45/69 
f 45/14/69 46/9/69 58/45/69 
f 46/9/69 47/10/69 58/45/69 
f 47/10/69 48/19/69 58/45/69 
f 48/19/69 42/20/69 58/45/69 
# 112 faces

